<?xml version="1.0" encoding="utf-8"?>
<!-- Generator: Adobe Illustrator 22.1.0, SVG Export Plug-In . SVG Version: 6.00 Build 0)  -->
<svg version="1.1" id="Layer_1" xmlns="http://www.w3.org/2000/svg" xmlns:xlink="http://www.w3.org/1999/xlink" x="0px" y="0px"
	 viewBox="0 0 32 32" style="enable-background:new 0 0 32 32;" xml:space="preserve">
<style type="text/css">
	.st0{fill:#FFFFFF;}
	.st1{fill:#626162;}
</style>
<polygon class="st0" points="7.2,1.1 7.2,9.2 1.3,9.2 1.3,24.4 7.1,24.4 7.1,31.1 24.9,31.1 24.9,24.9 30.6,24.9 30.6,9.2 24.8,9.2
	24.8,1.1 "/>
<title>Bookmark_Icons-04</title>
<path class="st1" d="M29.6,8.1h-3.7V0.2H6.2v7.9H2.4c-1.2,0-2.2,1-2.2,2.2v13.4c0,1.2,1,2.2,2.2,2.2h3.7v5.9h19.7v-5.9h3.7
	c1.2,0,2.2-1,2.2-2.2V10.3C31.7,9.1,30.8,8.1,29.6,8.1z M8.1,2.2h15.8v5.9H8.1V2.2z M23.9,29.8H8.1V19h15.8
	C23.9,19,23.9,29.8,23.9,29.8z M29.7,23.7c0,0.1-0.1,0.2-0.2,0.2h-3.6V17H6.2v6.9H2.4c-0.1,0-0.2-0.1-0.2-0.2V10.3
	c0-0.1,0.1-0.2,0.2-0.2h27.1c0.1,0,0.2,0.1,0.2,0.2V23.7L29.7,23.7z M25.8,12.1h-1c-0.5,0-1,0.4-1,1c0,0.5,0.4,1,1,1h1
	c0.5,0,1-0.4,1-1S26.4,12.1,25.8,12.1z"/>
</svg>
