<?xml version="1.0" encoding="utf-8"?>
<!-- Generator: Adobe Illustrator 22.1.0, SVG Export Plug-In . SVG Version: 6.00 Build 0)  -->
<svg version="1.1" id="Layer_1" xmlns="http://www.w3.org/2000/svg" xmlns:xlink="http://www.w3.org/1999/xlink" x="0px" y="0px"
	 viewBox="0 0 32 32" style="enable-background:new 0 0 32 32;" xml:space="preserve">
<style type="text/css">
	.st0{fill:#FFFFFF;}
	.st1{fill:#626162;}
</style>
<path class="st0" d="M12.3,1.5c-0.1,0-4.6,0-4.6,0v29.1l8.2-6.4l8.4,6.4V1.5H12.3z"/>
<title>Bookmark_Icons-04</title>
<path class="st1" d="M24.4,0.3H7.6c0,0,0,0-0.1,0c-0.6,0-1.2,0.5-1.2,1.2v29.1c0,0.2,0.1,0.5,0.2,0.7c0.2,0.3,0.6,0.5,1,0.5
	c0.2,0,0.5-0.1,0.7-0.2l7.7-5.7l7.7,5.6c0.2,0.1,0.4,0.2,0.7,0.2c0.2,0,0.3,0,0.5-0.1c0.4-0.2,0.6-0.6,0.7-1V1.4
	C25.5,0.8,25,0.3,24.4,0.3z M23.2,28.3l-6.5-4.8c-0.4-0.3-1-0.3-1.4,0l-6.5,4.8V2.6h14.4V28.3z"/>
</svg>
