<?xml version="1.0" encoding="utf-8"?>
<!-- Generator: Adobe Illustrator 22.1.0, SVG Export Plug-In . SVG Version: 6.00 Build 0)  -->
<svg version="1.1" id="Layer_1" xmlns="http://www.w3.org/2000/svg" xmlns:xlink="http://www.w3.org/1999/xlink" x="0px" y="0px"
	 viewBox="0 0 32 32" style="enable-background:new 0 0 32 32;" xml:space="preserve">
<style type="text/css">
	.st0{fill:#FFFFFF;}
	.st1{fill:#626162;}
</style>
<path class="st0" d="M27.4,3.3H3.5L1.4,6.6c0,0,0,10.6,0,12.1s3.1,3.5,3.1,3.5h2.2L6.8,29c0,0,2.7-0.8,2.9-1c0.2-0.1,6-6,6-6h12.8
	l2.3-2.2l0.4-5.4l-0.6-9.2L27.4,3.3z"/>
<title>Bookmark_Icons-04</title>
<path class="st1" d="M21.2,9.9h-14c-0.4,0-0.8-0.3-0.9-0.7c0,0,0,0,0-0.1c0-0.5,0.4-0.9,0.9-0.9h14c0.5,0,0.9,0.4,0.9,0.9
	C22.1,9.6,21.7,9.9,21.2,9.9L21.2,9.9z"/>
<path class="st1" d="M14.2,16.9h-7c-0.5,0-0.9-0.4-0.9-0.9c0-0.5,0.4-0.9,0.9-0.9h7c0.5,0,0.9,0.4,0.9,0.9
	C15.1,16.5,14.7,16.9,14.2,16.9L14.2,16.9z"/>
<path class="st1" d="M24.6,13.4H7.2c-0.5,0-0.9-0.4-0.9-0.9s0.4-0.9,0.9-0.9h17.4c0.5,0,0.9,0.4,0.9,0.9S25.1,13.4,24.6,13.4z"/>
<path class="st1" d="M7.1,30c-1,0-1.6-1-1.6-2v-4.9c-0.5,0-1,0-1.5-0.1c-2.1-0.4-3.6-2.2-3.6-4.3V6.5c0-2.4,2-4.4,4.4-4.4l0,0H27
	c2.5-0.2,4.6,1.7,4.8,4.1c0,0.2,0,0.4,0,0.7v11.6c0.2,2.4-1.7,4.6-4.1,4.7c-0.2,0-0.4,0-0.6,0H15.8c-0.1,0-0.1,0-0.2,0.1
	C14.1,24.6,9,29.5,9,29.5C8.6,29.8,8.2,30,7.1,30z M6.1,21c0.4,0,0.8,0.1,1.1,0.4c0.3,0.3,0.4,0.8,0.4,1.2v5.1l2-1.9l4.4-4.1
	c0.4-0.5,1-0.7,1.7-0.7H27c1.3,0.1,2.5-0.8,2.7-2.2c0-0.2,0-0.3,0-0.5V6.8c0.2-1.4-0.8-2.6-2.2-2.8c-0.2,0-0.4,0-0.6,0H4.7
	C3.4,4.1,2.4,5.2,2.3,6.5v12.2c0,1.1,0.9,2.3,2,2.3S5.2,21,6.1,21z"/>
</svg>
