<?xml version="1.0" encoding="utf-8"?>
<!-- Generator: Adobe Illustrator 22.1.0, SVG Export Plug-In . SVG Version: 6.00 Build 0)  -->
<svg version="1.1" id="Layer_1" xmlns="http://www.w3.org/2000/svg" xmlns:xlink="http://www.w3.org/1999/xlink" x="0px" y="0px"
	 viewBox="0 0 32 32" style="enable-background:new 0 0 32 32;" xml:space="preserve">
<style type="text/css">
	.st0{fill:#FFFFFF;}
	.st1{fill:#626162;}
</style>
<path class="st0" d="M5.4,30.3c-2,0-3.6-1.6-3.6-3.6V7l28.4,0.1v19.5c0,2-1.6,3.6-3.6,3.6H5.4z"/>
<rect x="7.1" y="13.2" class="st1" width="4.3" height="4.3"/>
<rect x="7.1" y="21" class="st1" width="4.3" height="4.3"/>
<rect x="14" y="13.2" class="st1" width="4.3" height="4.3"/>
<rect x="20.9" y="13.2" class="st1" width="4.3" height="4.3"/>
<path class="st1" d="M27.3,5.4c-0.2,0-0.4,0-0.5,0v-4c0-0.7-0.6-1.3-1.3-1.3c-0.7,0-1.3,0.6-1.3,1.3v4h-2.7v-4
	c0-0.7-0.6-1.3-1.3-1.3c-0.7,0-1.3,0.6-1.3,1.3v4h-5.3v-4c0-0.7-0.6-1.3-1.3-1.3S11,0.7,11,1.4v4H8.1v-4C8.1,0.6,7.5,0,6.7,0
	C6,0,5.4,0.6,5.4,1.3v4c-0.2,0-0.4,0-0.5,0H0.1v5.3v0.1v15.9c0,2.9,2.4,5.3,5.3,5.3h21.3c2.9,0,5.3-2.4,5.3-5.3V10.7v-0.1V5.4H27.3z
	 M29.4,26.7c0,1.5-1.2,2.7-2.7,2.7H5.4c-1.5,0-2.7-1.2-2.7-2.7V7.9L29.4,8V26.7z"/>
<rect x="14" y="21" class="st1" width="4.3" height="4.3"/>
</svg>
