<?xml version="1.0" encoding="utf-8"?>
<!-- Generator: Adobe Illustrator 19.2.1, SVG Export Plug-In . SVG Version: 6.00 Build 0)  -->
<svg width="16" height="16" version="1.1" id="Layer_1" xmlns="http://www.w3.org/2000/svg" xmlns:xlink="http://www.w3.org/1999/xlink" x="0px" y="0px"
	 viewBox="0 0 32 32" style="enable-background:new 0 0 32 32;" xml:space="preserve">
<style type="text/css">
	.st0{fill:#FFFFFF;}
</style>
<g>
	<path class="st0" d="M18,23.8h-5.5c0-0.8,0-1.3,0-1.4c0-1.8,0.3-3.3,0.9-4.4c0.6-1.2,1.8-2.4,3.5-3.9c1.8-1.4,2.8-2.4,3.2-2.8
		c0.5-0.7,0.8-1.5,0.8-2.3c0-1.2-0.5-2.2-1.4-3s-2.2-1.3-3.8-1.3c-1.5,0-2.8,0.4-3.9,1.3c-1,0.9-1.8,2.2-2.1,4L4.1,9.3
		c0.2-2.6,1.3-4.8,3.3-6.6s4.7-2.7,8-2.7c3.5,0,6.3,0.9,8.3,2.7c2.1,1.8,3.1,3.9,3.1,6.4c0,1.3-0.4,2.6-1.1,3.8s-2.4,2.8-4.9,4.9
		c-1.3,1.1-2.1,1.9-2.4,2.6C18.1,21,18,22.2,18,23.8z M12.5,32v-6.1h6.1V32H12.5z"/>
</g>
</svg>
