<?xml version="1.0" encoding="utf-8"?>
<!-- Generator: Adobe Illustrator 19.2.1, SVG Export Plug-In . SVG Version: 6.00 Build 0)  -->
<svg width="16" height="16" version="1.1" id="Layer_1" xmlns="http://www.w3.org/2000/svg" xmlns:xlink="http://www.w3.org/1999/xlink" x="0px" y="0px"
	 viewBox="0 0 32 32" style="enable-background:new 0 0 32 32;" xml:space="preserve">
<style type="text/css">
	.st0{fill:#FFFFFF;}
	.st1{fill:#0B55A8;}
</style>
<g>
	<path class="st0" d="M20.2,4.7l0-2.9H6c-0.6,0-1,0.5-1,1v26.2c0,0.6,0.5,1,1,1h20.1c0.6,0,1-0.5,1-1V8.8h-2.8
		C22,8.8,20.2,7,20.2,4.7z"/>
	<path class="st1" d="M20.2,0H5.9C4,0,3.1,1,3.1,2.6v26.6c0,1.8,1,2.8,2.6,2.8h20.5c1.8,0,2.8-1,2.8-2.6V8.8L20.2,0z M27.1,29.1
		c0,0.6-0.5,1-1,1H6c-0.6,0-1-0.5-1-1V2.9c0-0.6,0.5-1,1-1h14.2l0,2.9c0,2.2,1.8,4.1,4.1,4.1h2.8V29.1z"/>
</g>
<g>
	<path class="st1" d="M21.1,25.2l-9.7,0c-1.1,0-1.9-0.9-1.9-2c0-1.1,0.9-2,1.9-2l5,0l-6.8-6.9c-0.8-0.8-0.8-2,0-2.8
		c0.8-0.8,2-0.8,2.7,0l6.8,6.9v-5c0-1.1,0.9-2,1.9-2c1.1,0,1.9,0.9,1.9,2v9.7c0,0.5-0.2,1-0.6,1.4c-0.1,0.1-0.2,0.2-0.3,0.3
		c0,0,0,0,0,0C22,24.9,21.9,25,21.8,25c0,0,0,0,0,0C21.6,25.1,21.3,25.2,21.1,25.2L21.1,25.2z"/>
</g>
</svg>
