<?xml version="1.0" encoding="utf-8"?>
<!-- Generator: Adobe Illustrator 19.2.0, SVG Export Plug-In . SVG Version: 6.00 Build 0)  -->
<svg width="16" height="16" version="1.1" id="Layer_1" xmlns="http://www.w3.org/2000/svg" xmlns:xlink="http://www.w3.org/1999/xlink" x="0px" y="0px"
	 viewBox="0 0 32 32" style="enable-background:new 0 0 32 32;" xml:space="preserve">
<style type="text/css">
	.st0{fill:#FEC23C;}
	.st1{fill:none;}
	.st2{fill:#002158;}
</style>
<g>
	<circle class="st0" cx="16" cy="16" r="16"/>
	<g id="Layer_2">
		<g>
			<path class="st1" d="M22.6,11.5h-1.7c-1.3,0-2.4-1.1-2.4-2.4V7.4H10C9.7,7.4,9.4,7.7,9.4,8v15.6c0,0.3,0.3,0.6,0.6,0.6"/>
			<rect x="12" y="15.9" class="st2" width="2.1" height="2.1"/>
			<g>
				<path class="st2" d="M20.5,14h-4.3c-0.3,0-0.5-0.3-0.5-0.6c0-0.2,0.2-0.6,0.5-0.6h4.3c0.3,0,0.5,0.3,0.5,0.6
					C21,13.6,20.8,14,20.5,14z"/>
			</g>
			<g>
				<path class="st2" d="M20.5,18h-4.3c-0.3,0-0.5-0.3-0.5-0.6c0-0.2,0.2-0.6,0.5-0.6h4.3c0.3,0,0.5,0.3,0.5,0.6
					C21,17.7,20.8,18,20.5,18z"/>
			</g>
			<g>
				<polygon class="st2" points="15.4,12.1 14.7,11.5 12.6,13.6 11.6,12.5 11,13.2 12.6,14.8 12.7,14.8 12.7,14.8 				"/>
			</g>
			<g>
				<path class="st2" d="M20.5,22h-4.3c-0.3,0-0.5-0.3-0.5-0.6c0-0.2,0.2-0.6,0.5-0.6h4.3c0.3,0,0.5,0.3,0.5,0.6
					C21,21.7,20.8,22,20.5,22z"/>
			</g>
			<g>
				<polygon class="st2" points="15.4,20.1 14.7,19.5 12.6,21.6 11.6,20.6 11,21.2 12.6,22.9 12.7,22.9 12.7,22.9 				"/>
			</g>
			<path class="st2" d="M23.7,11.5l-5.2-5.2H10l0,0l0,0c-1.1,0-1.6,0.6-1.6,1.5v15.8c0,1.1,0.6,1.6,1.5,1.6H22
				c1.1,0,1.6-0.6,1.6-1.5 M22.6,23.5c0,0.3-0.3,0.6-0.6,0.6H10c-0.3,0-0.6-0.3-0.6-0.6V8c0-0.3,0.3-0.6,0.6-0.6h8.4v1.7
				c0,1.3,1.1,2.4,2.4,2.4h1.7"/>
		</g>
	</g>
</g>
</svg>
