<?xml version="1.0" encoding="utf-8"?>
<!-- Generator: Adobe Illustrator 19.1.0, SVG Export Plug-In . SVG Version: 6.00 Build 0)  -->
<svg width="16" height="16" version="1.1" id="Layer_1" xmlns="http://www.w3.org/2000/svg" xmlns:xlink="http://www.w3.org/1999/xlink" x="0px" y="0px"
	 viewBox="0 0 80 80" style="enable-background:new 0 0 80 80;" xml:space="preserve">
<style type="text/css">
	.st0{fill:#F9A034;}
	.st1{fill:none;stroke:#39B1CD;stroke-width:2.1091;stroke-miterlimit:10;}
	.st2{fill:none;stroke:#FEC23D;stroke-width:0.1883;stroke-miterlimit:10;}
	.st3{fill:#FFFFFF;}
	.st4{fill:#FFFFFF;stroke:#FFFFFF;stroke-width:1.4;stroke-miterlimit:10;}
	.st5{fill:#0477A7;}
	.st6{fill:none;stroke:#0477A7;stroke-width:1.875;stroke-linecap:round;stroke-miterlimit:10;}
	.st7{fill:none;}
	.st8{fill:#39B1CD;}
	.st9{fill:#A41E22;}
	.st10{fill:#832884;}
	.st11{fill-rule:evenodd;clip-rule:evenodd;fill:#FFFFFF;}
	.st12{fill:none;stroke:#FFFFFF;stroke-width:0.5161;stroke-miterlimit:10;}
	.st13{fill:#36BB9B;}
	.st14{fill:#0277A7;}
	.st15{fill:none;stroke:#0477A7;stroke-width:1.5;stroke-linecap:round;stroke-miterlimit:10;}
	.st16{fill:none;stroke:#0277A7;stroke-width:1.5;stroke-linecap:round;stroke-miterlimit:10;}
	.st17{fill:#E04576;}
	.st18{fill:#F48132;}
	.st19{fill:none;stroke:#FFFFFF;stroke-width:1.5;stroke-linecap:round;stroke-miterlimit:10;}
	.st20{fill:#FFFFFF;stroke:#FFFFFF;stroke-width:1.4256;stroke-linecap:round;stroke-miterlimit:10;}
	.st21{fill:none;stroke:#FFFFFF;stroke-width:0.6452;stroke-miterlimit:10;}
	.st22{fill:#464542;}
	.st23{fill:#002158;}
	.st24{fill:#002158;stroke:#FFF3D8;stroke-width:1.3;stroke-miterlimit:10;}
</style>
<g>
	<circle class="st8" cx="40" cy="40" r="40"/>
	<path class="st3" d="M56,25.2c-4.1-3.3-9.7-5-16-5h0c-6.3,0-11.9,1.7-16,5c-4.1,3.3-6.5,7.5-6.5,12.4c0,8.6,7.8,15.9,18.3,17.4
		c0.2,0,0.4,0.1,0.5,0.3c0.1,0.2,0.1,0.4,0,0.6c-1.4,3.7-3.8,6.4-5.7,8.1c8-2.3,11.4-6.1,13-8.8c0.1-0.2,0.3-0.3,0.5-0.3
		c10.6-1.6,18.4-9,18.4-17.5C62.5,32.6,60,28.5,56,25.2z M39.6,43.9c-0.7,3.1-3.7,4.5-7.1,4.3c-1.9-0.1-5-1.2-6.7-4.8
		c-4.3-9.5,6.9-17.4,10-18.4l1.1,1.3c-4.5,1-13.4,14.6-4,12C36.3,37.6,40.4,40.2,39.6,43.9z M44.1,50.6l-1.1-1.3
		c4.5-1,13.4-14.5,4-11.9c-3.4,0.9-7.5-1.7-6.6-5.5c0.7-3.1,3.7-4.5,7.1-4.3c1.9,0.1,5,1.2,6.7,4.8C58.5,41.9,47.3,49.7,44.1,50.6z"
		/>
</g>
</svg>
