<?xml version="1.0" encoding="utf-8"?>
<!-- Generator: Adobe Illustrator 19.2.1, SVG Export Plug-In . SVG Version: 6.00 Build 0)  -->
<svg width="16" height="16" version="1.1" id="Layer_1" xmlns="http://www.w3.org/2000/svg" xmlns:xlink="http://www.w3.org/1999/xlink" x="0px" y="0px"
	 viewBox="0 0 32 32" style="enable-background:new 0 0 32 32;" xml:space="preserve">
<style type="text/css">
	.st0{fill:#0B55A8;}
</style>
<path class="st0" d="M31.7,16.5c-0.2-0.5-0.6-0.9-1.1-1.2c-0.5-0.3-1.1-0.4-1.7-0.4h-3.2v-2.7c0-1-0.4-1.9-1.1-2.6
	C23.9,8.9,23,8.5,22,8.5h-9.1V8c0-1-0.4-1.9-1.1-2.6C11,4.6,10.1,4.2,9.1,4.2H3.8c-1,0-1.9,0.4-2.6,1.1C0.4,6,0,6.9,0,8V24
	c0,1,0.4,1.9,1.1,2.6c0.7,0.7,1.6,1.1,2.6,1.1H22c0.7,0,1.5-0.2,2.3-0.6c0.8-0.4,1.5-0.9,1.9-1.5l4.9-6.1c0.5-0.6,0.8-1.3,0.8-2
	C32,17.3,31.9,16.9,31.7,16.5z M2.1,8c0-0.4,0.2-0.8,0.5-1.1c0.3-0.3,0.7-0.5,1.1-0.5h5.4c0.4,0,0.8,0.2,1.1,0.5
	c0.3,0.3,0.5,0.7,0.5,1.1V9c0,0.4,0.2,0.8,0.5,1.1c0.3,0.3,0.7,0.5,1.1,0.5H22c0.4,0,0.8,0.2,1.1,0.5s0.5,0.7,0.5,1.1v2.7H10.7
	c-0.8,0-1.5,0.2-2.3,0.6c-0.8,0.4-1.5,0.9-1.9,1.5l-4.3,5.3V8z M29.6,18.3l-4.9,6.1c-0.3,0.3-0.7,0.6-1.2,0.9
	c-0.5,0.2-1,0.4-1.4,0.4H3.8c-0.6,0-0.9-0.2-0.9-0.6c0-0.2,0.1-0.4,0.3-0.7l4.9-6.1c0.3-0.3,0.7-0.6,1.2-0.9c0.5-0.2,1-0.4,1.4-0.4
	H29c0.6,0,0.9,0.2,0.9,0.6C29.9,17.8,29.8,18.1,29.6,18.3z"/>
</svg>
