<?xml version="1.0" encoding="utf-8"?>
<!-- Generator: Adobe Illustrator 19.2.1, SVG Export Plug-In . SVG Version: 6.00 Build 0)  -->
<svg width="16" height="16" version="1.1" id="Layer_1" xmlns="http://www.w3.org/2000/svg" xmlns:xlink="http://www.w3.org/1999/xlink" x="0px" y="0px"
	 viewBox="0 0 32 32" style="enable-background:new 0 0 32 32;" xml:space="preserve">
<style type="text/css">
	.st0{fill:#FFFFFF;}
	.st1{fill:#0B55A8;}
</style>
<polygon class="st0" points="4.8,1.2 20.6,1.2 28.8,9 28.8,30.5 27.6,31.2 6.2,31.2 4.4,30.1 4.4,2.8 "/>
<g>
	<path class="st1" d="M20.7,0H6.4l0,0l0,0C4.5,0,3.6,1,3.6,2.6v26.6c0,1.8,1,2.8,2.6,2.8h20.5c1.8,0,2.7-1,2.7-2.6V8.8L20.7,0z
		 M27.6,29.1c0,0.6-0.5,1-1,1H6.5c-0.6,0-1-0.5-1-1V2.9c0-0.6,0.5-1,1-1h14.2v2.9c0,2.2,1.8,4.1,4.1,4.1h2.8V29.1z"/>
	<g>
		<path class="st1" d="M24.1,17.5H8.9c-0.4,0-0.8-0.6-0.8-1s0.4-1,0.8-1h15.2c0.4,0,0.8,0.6,0.8,1C24.9,16.9,24.5,17.5,24.1,17.5z"
			/>
	</g>
	<g>
		<path class="st1" d="M24.1,13H8.9c-0.4,0-0.8-0.6-0.8-1s0.4-1,0.8-1h15.2c0.4,0,0.8,0.6,0.8,1S24.5,13,24.1,13z"/>
	</g>
	<g>
		<g>
			<path class="st1" d="M24.1,26.6H8.9c-0.4,0-0.8-0.6-0.8-1s0.4-1,0.8-1h15.2c0.4,0,0.8,0.6,0.8,1S24.5,26.6,24.1,26.6z"/>
		</g>
		<g>
			<path class="st1" d="M24.1,22H8.9c-0.4,0-0.8-0.6-0.8-1s0.4-1,0.8-1h15.2c0.4,0,0.8,0.6,0.8,1S24.5,22,24.1,22z"/>
		</g>
	</g>
</g>
</svg>
