<?xml version="1.0" encoding="utf-8"?>
<!-- Generator: Adobe Illustrator 19.2.1, SVG Export Plug-In . SVG Version: 6.00 Build 0)  -->
<svg width="16" height="16" version="1.1" id="Layer_1" xmlns="http://www.w3.org/2000/svg" xmlns:xlink="http://www.w3.org/1999/xlink" x="0px" y="0px"
	 viewBox="0 0 32 32" style="enable-background:new 0 0 32 32;" xml:space="preserve">
<style type="text/css">
	.st0{fill:#0B55A8;}
</style>
<g>
	<g>
		<path class="st0" d="M16,0C7.2,0,0,7.2,0,16s7.2,16,16,16s16-7.2,16-16S24.8,0,16,0z M2,16.9h5.9c0,1.6,0.2,3.2,0.5,4.6H3.1
			C2.5,20.1,2.1,18.6,2,16.9z M15.1,15.1H9.7c0-1.6,0.2-3.1,0.5-4.5H15v4.5H15.1z M16.9,10.5h4.8c0.3,1.4,0.4,2.9,0.5,4.5h-5.3
			L16.9,10.5z M7.9,15.1H2c0.1-1.6,0.4-3.1,1-4.6h5.3C8.1,12,7.9,13.5,7.9,15.1z M9.7,16.9H15v4.6h-4.8C10,20.2,9.8,18.6,9.7,16.9z
			 M16.9,16.9h5.3c-0.1,1.7-0.2,3.2-0.5,4.6h-4.8L16.9,16.9z M24.1,16.9H30c-0.1,1.6-0.5,3.2-1.1,4.6h-5.3
			C23.9,20.1,24.1,18.6,24.1,16.9z M24.1,15.1c0-1.6-0.2-3.1-0.5-4.5H29c0.6,1.4,1,2.9,1.1,4.5H24.1z M28,8.7h-4.7
			c-0.6-2.4-1.6-4.5-2.7-6C23.7,3.7,26.3,5.9,28,8.7z M21.3,8.7h-4.4V2.1C18.7,2.7,20.3,5.1,21.3,8.7z M15.1,2.1v6.6h-4.4
			C11.7,5.1,13.3,2.7,15.1,2.1z M11.4,2.7c-1.2,1.5-2.1,3.6-2.7,6H4C5.7,5.9,8.3,3.7,11.4,2.7z M4.1,23.4h4.7
			c0.6,2.4,1.6,4.4,2.7,5.9C8.3,28.3,5.8,26.2,4.1,23.4z M10.7,23.4h4.4v6.5C13.4,29.3,11.7,26.9,10.7,23.4z M16.9,29.9v-6.5h4.4
			C20.3,26.9,18.7,29.3,16.9,29.9z M20.6,29.3c1.1-1.5,2.1-3.5,2.7-5.9H28C26.2,26.2,23.7,28.3,20.6,29.3z"/>
	</g>
</g>
</svg>
